<svg height="512pt" viewBox="0 -60 512.00009 512" width="512pt" xmlns="http://www.w3.org/2000/svg" xmlns:xlink="http://www.w3.org/1999/xlink"><linearGradient id="a"><stop offset="0" stop-color="#662d91"/><stop offset=".437" stop-color="#3873b3"/><stop offset="1" stop-color="#00c9dd"/></linearGradient><linearGradient id="b" gradientTransform="matrix(1.08242 0 0 -1.08242 .000094 442.761834)" gradientUnits="userSpaceOnUse" x1="141.9044" x2="501.3874" xlink:href="#a" y1="444.524" y2="85.041"/><linearGradient id="c" gradientTransform="matrix(1.08242 0 0 -1.08242 .000094 442.761834)" gradientUnits="userSpaceOnUse" x1="83.5567" x2="443.0318" xlink:href="#a" y1="386.1763" y2="26.6933"/><linearGradient id="d" gradientTransform="matrix(1.08242 0 0 -1.08242 .000094 442.761834)" gradientUnits="userSpaceOnUse" x1="87.9563" x2="447.4393" xlink:href="#a" y1="390.5759" y2="31.1008"/><linearGradient id="e" gradientTransform="matrix(1.08242 0 0 -1.08242 .000094 442.761834)" gradientUnits="userSpaceOnUse" x1="142.7295" x2="502.2046" xlink:href="#a" y1="445.3491" y2="85.8661"/><linearGradient id="f" gradientTransform="matrix(1.08242 0 0 -1.08242 .000094 442.761834)" gradientUnits="userSpaceOnUse" x1="79.6733" x2="439.1563" xlink:href="#a" y1="382.2929" y2="22.8099"/><path d="m486.402344 85.332031h-110.933594c-14.140625 0-25.601562 11.464844-25.601562 25.601563v256c0 14.140625 11.460937 25.601562 25.601562 25.601562h110.929688c14.140624 0 25.601562-11.460937 25.601562-25.601562v-256c0-14.136719-11.460938-25.601563-25.597656-25.601563zm-119.46875 51.203125h128v196.265625h-128zm8.535156-34.136718h110.929688c4.714843 0 8.535156 3.824218 8.535156 8.535156v8.535156h-128v-8.535156c0-4.710938 3.820312-8.535156 8.535156-8.535156zm110.933594 273.066406h-110.933594c-4.714844 0-8.535156-3.820313-8.535156-8.53125v-17.066406h128v17.066406c0 4.714844-3.820313 8.53125-8.53125 8.53125zm0 0" fill="url(#b)"/><path d="m324.265625 256c4.714844 0 8.535156-3.820312 8.535156-8.535156 0-4.710938-3.820312-8.53125-8.535156-8.53125h-307.199219v-206.933594c-.054687-8.179688 6.515625-14.859375 14.695313-14.933594h371.679687c8.175782.074219 14.75 6.753906 14.691406 14.933594v27.734375c0 4.710937 3.824219 8.53125 8.535157 8.53125 4.714843 0 8.535156-3.820313 8.535156-8.53125v-27.734375c.042969-17.597656-14.164063-31.9101562-31.761719-32h-371.679687c-17.597657.0898438-31.8046878 14.402344-31.761719 32v234.667969c-.0429688 17.597656 14.164062 31.910156 31.761719 31.996093h155.972656v76.800782h-76.800781c-4.710938 0-8.535156 3.820312-8.535156 8.535156 0 4.710938 3.824218 8.535156 8.535156 8.535156h213.332031c4.714844 0 8.535156-3.824218 8.535156-8.535156 0-4.714844-3.820312-8.535156-8.535156-8.535156h-76.796875v-76.796875h76.796875c4.714844 0 8.535156-3.820313 8.535156-8.535157 0-4.710937-3.820312-8.535156-8.535156-8.535156h-292.503906c-8.179688-.074218-14.75-6.753906-14.695313-14.929687v-10.667969zm-93.863281 42.667969v76.796875h-25.601563v-76.796875zm0 0" fill="url(#c)"/><path d="m221.867188 34.132812c-31.78125-1.09375-58.476563 23.691407-59.734376 55.464844v21.335938c-4.710937 0-8.53125 3.820312-8.53125 8.53125v93.867187c0 4.714844 3.820313 8.535157 8.53125 8.535157h119.46875c4.710938 0 8.53125-3.820313 8.53125-8.535157v-93.867187c0-4.710938-3.820312-8.53125-8.53125-8.53125v-21.335938c-1.261718-31.773437-27.953124-56.558594-59.734374-55.464844zm51.199218 170.667969h-102.398437v-76.800781h102.398437zm-93.867187-93.867187v-21.335938c1.261719-22.34375 20.3125-39.488281 42.667969-38.398437 22.355468-1.089844 41.40625 16.054687 42.667968 38.398437v21.335938zm0 0" fill="url(#d)"/><path d="m460.800781 246.613281c-.011719-.605469-.085937-1.203125-.222656-1.792969l-5.121094-22.023437 4.875-13.9375c.636719-1.824219.636719-3.8125 0-5.640625l-4.703125-13.472656 4.703125-13.464844c1.105469-3.164062.257813-6.683594-2.167969-8.996094l-17.066406-16.289062c-3.296875-3.140625-8.480468-3.140625-11.777344 0l-17.066406 16.289062c-1.6875 1.613282-2.644531 3.84375-2.644531 6.179688v73.148437c-12.902344 9.054688-19.304687 24.832031-16.359375 40.320313 3.609375 16.957031 17.210938 29.992187 34.304688 32.878906 2.519531.425781 5.066406.644531 7.621093.648438 10.304688.03125 20.285157-3.597657 28.160157-10.242188 17.03125-14.070312 19.429687-39.285156 5.359374-56.320312-2.292968-2.769532-4.949218-5.222657-7.894531-7.285157zm-8.492187 50.601563c-6.09375 5.070312-14.121094 7.175781-21.921875 5.753906-10.082031-1.621094-18.15625-9.230469-20.367188-19.199219-1.835937-10.132812 3.132813-20.277343 12.261719-25.039062 2.699219-1.5 4.378906-4.34375 4.386719-7.429688v-74.15625l8.535156-8.140625 7.191406 6.824219-3.863281 11.09375c-.640625 1.824219-.640625 3.808594 0 5.632813l4.710938 13.472656-4.703126 13.476562c-.539062 1.523438-.628906 3.167969-.265624 4.742188l5.460937 23.519531v3.53125c0 3.097656 1.679687 5.953125 4.386719 7.460937 11.375 5.703126 15.972656 19.546876 10.269531 30.921876-1.46875 2.921874-3.539063 5.5-6.078125 7.5625v-.027344zm0 0" fill="url(#e)"/><path d="m213.769531 168.523438c-.242187.695312-.386719 1.414062-.4375 2.144531v17.066406c0 4.710937 3.820313 8.535156 8.535157 8.535156 4.710937 0 8.535156-3.824219 8.535156-8.535156v-17.066406c-.050782-.730469-.195313-1.449219-.4375-2.144531 8.296875-4.476563 11.390625-14.828126 6.914062-23.121094-4.480468-8.296875-14.832031-11.390625-23.125-6.914063-8.296875 4.476563-11.390625 14.832031-6.914062 23.125 1.582031 2.929688 3.984375 5.332031 6.914062 6.910157zm0 0" fill="url(#f)"/></svg>