<svg height="480pt" viewBox="0 0 480 480" width="480pt" xmlns="http://www.w3.org/2000/svg"><path d="m456 8h-432c-8.835938 0-16 7.164062-16 16v32h464v-32c0-8.835938-7.164062-16-16-16zm0 0" fill="#78b9eb"/><path d="m240 184c13.253906 0 24-10.746094 24-24v-16c0-13.253906-10.746094-24-24-24s-24 10.746094-24 24v16c0 13.253906 10.746094 24 24 24zm0 0" fill="#78b9eb"/><path d="m288 240c0-17.671875-14.328125-32-32-32h-32c-17.671875 0-32 14.328125-32 32v32h96zm0 0" fill="#78b9eb"/><g fill="#1a6fb0"><path d="m456 0h-432c-13.253906 0-24 10.746094-24 24v432c0 13.253906 10.746094 24 24 24h432c13.253906 0 24-10.746094 24-24v-432c0-13.253906-10.746094-24-24-24zm-432 16h432c4.417969 0 8 3.582031 8 8v24h-448v-24c0-4.417969 3.582031-8 8-8zm432 448h-432c-4.417969 0-8-3.582031-8-8v-392h448v392c0 4.417969-3.582031 8-8 8zm0 0"/><path d="m32 24h16v16h-16zm0 0"/><path d="m72 24h16v16h-16zm0 0"/><path d="m112 24h16v16h-16zm0 0"/><path d="m240 320c66.273438 0 120-53.726562 120-120s-53.726562-120-120-120-120 53.726562-120 120c.074219 66.242188 53.757812 119.925781 120 120zm0-224c57.4375 0 104 46.5625 104 104s-46.5625 104-104 104-104-46.5625-104-104c.066406-57.410156 46.589844-103.933594 104-104zm0 0"/><path d="m48 336h160v16h-160zm0 0"/><path d="m216 336h88v16h-88zm0 0"/><path d="m312 336h120v16h-120zm0 0"/><path d="m48 368h168v16h-168zm0 0"/><path d="m224 368h208v16h-208zm0 0"/><path d="m48 400h96v16h-96zm0 0"/><path d="m152 400h88v16h-88zm0 0"/><path d="m248 400h128v16h-128zm0 0"/><path d="m384 400h48v16h-48zm0 0"/><path d="m48 432h384v16h-384zm0 0"/><path d="m240 192c17.671875 0 32-14.328125 32-32v-16c0-17.671875-14.328125-32-32-32s-32 14.328125-32 32v16c0 17.671875 14.328125 32 32 32zm-16-48c0-8.835938 7.164062-16 16-16s16 7.164062 16 16v16c0 8.835938-7.164062 16-16 16s-16-7.164062-16-16zm0 0"/><path d="m192 280h96c4.417969 0 8-3.582031 8-8v-32c-.027344-22.082031-17.917969-39.972656-40-40h-32c-22.082031.027344-39.972656 17.917969-40 40v32c0 4.417969 3.582031 8 8 8zm8-40c0-13.253906 10.746094-24 24-24h32c13.253906 0 24 10.746094 24 24v24h-80zm0 0"/></g></svg>