<?xml version="1.0" encoding="iso-8859-1"?>
<!-- Generator: Adobe Illustrator 19.0.0, SVG Export Plug-In . SVG Version: 6.00 Build 0)  -->
<svg version="1.1" id="Capa_1" xmlns="http://www.w3.org/2000/svg" xmlns:xlink="http://www.w3.org/1999/xlink" x="0px" y="0px"
	 viewBox="0 0 512 512" style="enable-background:new 0 0 512 512;" xml:space="preserve">
<g>
	<g transform="translate(1 1)">
		<path style="fill:#A4C2F7;" d="M485.4,212.333V255c-0.014,4.707-3.826,8.519-8.533,8.533h-8.533V485.4
			c-0.028,9.414-7.652,17.039-17.067,17.067H58.733c-9.414-0.028-17.039-7.653-17.067-17.067V263.533h-8.533
			c-4.707-0.014-8.519-3.826-8.533-8.533v-42.667l93.867-119.467h273.067L485.4,212.333z"/>
		<path style="fill:#E3E7F2;" d="M459.8,212.333V255c-0.014,4.707-3.826,8.519-8.533,8.533h-8.533V485.4
			c-0.028,9.414-7.653,17.039-17.067,17.067H58.733c-9.414-0.028-17.039-7.653-17.067-17.067V263.533h-8.533
			c-4.707-0.014-8.519-3.826-8.533-8.533v-42.667l93.867-119.467h247.467L459.8,212.333z"/>
		<path style="fill:#A4C2F7;" d="M485.4,212.333V255c-0.014,4.707-3.826,8.519-8.533,8.533H33.133
			c-4.707-0.014-8.519-3.826-8.533-8.533v-42.667H485.4z"/>
		<path style="fill:#E3E7F2;" d="M459.8,212.333V255c-0.014,4.707-3.826,8.519-8.533,8.533H33.133
			c-4.707-0.014-8.519-3.826-8.533-8.533v-42.667H459.8z"/>
		<polygon style="fill:#A4C2F7;" points="485.4,212.333 24.6,212.333 118.467,92.867 391.533,92.867 		"/>
		<g>
			<polygon style="fill:#E3E7F2;" points="459.8,212.333 24.6,212.333 118.467,92.867 365.933,92.867 			"/>
			<polyline style="fill:#E3E7F2;" points="152.6,135.533 135.533,135.533 109.933,169.667 152.6,169.667 357.4,169.667 
				400.067,169.667 374.467,135.533 357.4,135.533 			"/>
		</g>
		<path style="fill:#A4C2F7;" d="M357.4,24.6v145.067H152.6V24.6c0.028-9.414,7.652-17.039,17.067-17.067h170.667
			C349.748,7.561,357.372,15.186,357.4,24.6z"/>
		
			<linearGradient id="SVGID_1_" gradientUnits="userSpaceOnUse" x1="-49.6881" y1="651.1219" x2="-48.7637" y2="650.1002" gradientTransform="matrix(179.2 0 0 -162.1333 9063.5977 105579.4688)">
			<stop  offset="0" style="stop-color:#D4E1F4"/>
			<stop  offset="0.1717" style="stop-color:#D4E1F4"/>
			<stop  offset="0.2" style="stop-color:#D4E1F4"/>
			<stop  offset="0.2001" style="stop-color:#DAE4F4"/>
			<stop  offset="0.2007" style="stop-color:#EBEBF4"/>
			<stop  offset="0.2014" style="stop-color:#F6F1F4"/>
			<stop  offset="0.2023" style="stop-color:#FDF4F4"/>
			<stop  offset="0.205" style="stop-color:#FFF5F4"/>
			<stop  offset="0.2522" style="stop-color:#FFF5F4"/>
			<stop  offset="0.26" style="stop-color:#FFF5F4"/>
			<stop  offset="0.26" style="stop-color:#D4E1F4"/>
			<stop  offset="0.3974" style="stop-color:#D4E1F4"/>
			<stop  offset="0.42" style="stop-color:#D4E1F4"/>
			<stop  offset="0.4201" style="stop-color:#DAE4F4"/>
			<stop  offset="0.4207" style="stop-color:#EBEBF4"/>
			<stop  offset="0.4214" style="stop-color:#F6F1F4"/>
			<stop  offset="0.4223" style="stop-color:#FDF4F4"/>
			<stop  offset="0.425" style="stop-color:#FFF5F4"/>
			<stop  offset="0.4894" style="stop-color:#FFF5F4"/>
			<stop  offset="0.5" style="stop-color:#FFF5F4"/>
			<stop  offset="0.5" style="stop-color:#F9F2F4"/>
			<stop  offset="0.5001" style="stop-color:#E8EBF4"/>
			<stop  offset="0.5003" style="stop-color:#DDE5F4"/>
			<stop  offset="0.5005" style="stop-color:#D6E2F4"/>
			<stop  offset="0.501" style="stop-color:#D4E1F4"/>
			<stop  offset="0.7062" style="stop-color:#D4E1F4"/>
			<stop  offset="0.74" style="stop-color:#D4E1F4"/>
			<stop  offset="0.741" style="stop-color:#FFF5F4"/>
			<stop  offset="0.8346" style="stop-color:#FFF5F4"/>
			<stop  offset="0.85" style="stop-color:#FFF5F4"/>
			<stop  offset="0.851" style="stop-color:#D4E1F4"/>
		</linearGradient>
		<path style="fill:url(#SVGID_1_);" d="M331.8,24.6v145.067H152.6V24.6c0.028-9.414,7.652-17.039,17.067-17.067h145.067
			C324.148,7.561,331.773,15.186,331.8,24.6z"/>
		<g>
			<path style="fill:#A4C2F7;" d="M212.333,365.933h85.333c9.426,0,17.067,7.641,17.067,17.067v68.267
				c0,9.426-7.641,17.067-17.067,17.067h-85.333c-9.426,0-17.067-7.641-17.067-17.067V383
				C195.267,373.574,202.908,365.933,212.333,365.933z"/>
			<g>
				<path style="fill:#E3E7F2;" d="M212.333,365.933h59.733c9.426,0,17.067,7.641,17.067,17.067v68.267
					c0,9.426-7.641,17.067-17.067,17.067h-59.733c-9.426,0-17.067-7.641-17.067-17.067V383
					C195.267,373.574,202.908,365.933,212.333,365.933z"/>
				<circle style="fill:#E3E7F2;" cx="255" cy="417.133" r="17.067"/>
			</g>
		</g>
		<path style="fill:#E3E7F2;" d="M323.267,135.533c0.04,11.998-3.143,23.786-9.216,34.133H195.949
			c-12.558-21.528-12.263-48.217,0.768-69.461c1.707-2.959,3.678-5.758,5.888-8.363c1.452-1.78,3.02-3.462,4.693-5.035
			c26.464-26.055,68.939-26.055,95.403,0c1.674,1.573,3.241,3.255,4.693,5.035c2.21,2.605,4.181,5.404,5.888,8.363
			C319.856,110.813,323.315,123.054,323.267,135.533z"/>
	</g>
	<g>
		<g>
			<path style="fill:#FFFFFF;" d="M51.2,213.333V256c0.014,4.707,3.826,8.519,8.533,8.533h8.533V486.4
				c0.028,9.414,7.653,17.039,17.067,17.067h-25.6c-9.414-0.028-17.039-7.653-17.067-17.067V264.533h-8.533
				c-4.707-0.014-8.519-3.826-8.533-8.533v-42.667l93.867-119.467h25.6L51.2,213.333z"/>
			<polygon style="fill:#FFFFFF;" points="51.2,264.533 51.2,375.467 51.2,486.4 34.133,486.4 34.133,375.467 34.133,264.533 			"/>
		</g>
		<g>
			<path style="fill:#428DFF;" d="M42.667,341.333c3.45-0.014,6.556-2.096,7.879-5.282s0.606-6.856-1.82-9.31l-1.279-1.025
				c-0.476-0.324-0.993-0.583-1.538-0.771c-0.484-0.246-1.003-0.417-1.538-0.508c-0.563-0.096-1.133-0.153-1.704-0.171
				c-2.259,0.031-4.423,0.915-6.059,2.475c-2.07,1.994-2.979,4.908-2.409,7.726c0.57,2.818,2.539,5.149,5.222,6.183
				C40.447,341.088,41.55,341.32,42.667,341.333z"/>
			<path style="fill:#428DFF;" d="M494.377,210.576c-0.206-0.55-0.471-1.075-0.79-1.568c-0.138-0.327-0.298-0.644-0.478-0.949
				L399.242,88.592c-1.618-2.058-4.091-3.259-6.709-3.258h-25.6V25.6c-0.015-14.132-11.468-25.585-25.6-25.6H170.667
				c-14.132,0.015-25.585,11.468-25.6,25.6v59.733h-25.6c-2.618-0.001-5.091,1.201-6.708,3.258L18.892,208.058
				c-0.18,0.305-0.34,0.622-0.478,0.949c-0.665,0.97-1.057,2.102-1.135,3.276c-0.094,0.345-0.165,0.696-0.212,1.05V256
				c0.011,9.421,7.645,17.056,17.067,17.067v25.6c0,4.713,3.821,8.533,8.533,8.533s8.533-3.82,8.533-8.533v-25.6h196.267v17.929
				c-19.85,4.08-34.105,21.539-34.133,41.804v25.6c-14.132,0.015-25.585,11.468-25.6,25.6v68.267
				c0.015,14.132,11.468,25.585,25.6,25.6h85.333c14.132-0.015,25.585-11.468,25.6-25.6V384c-0.015-14.132-11.468-25.585-25.6-25.6
				v-25.6c-0.028-20.265-14.283-37.724-34.133-41.804v-17.929H460.8V486.4c-0.005,4.711-3.822,8.529-8.533,8.533H59.733
				c-4.711-0.005-8.529-3.822-8.533-8.533V366.933c0-4.713-3.821-8.533-8.533-8.533s-8.533,3.82-8.533,8.533V486.4
				c0.015,14.132,11.468,25.585,25.6,25.6h392.533c14.132-0.015,25.585-11.468,25.6-25.6V273.067
				c9.421-0.011,17.056-7.645,17.067-17.067v-42.667c-0.047-0.354-0.118-0.705-0.212-1.05
				C494.667,211.704,494.552,211.131,494.377,210.576z M307.2,384v68.267c-0.005,4.711-3.822,8.529-8.533,8.533h-85.333
				c-4.711-0.005-8.529-3.822-8.533-8.533V384c0.005-4.711,3.822-8.529,8.533-8.533h85.333
				C303.378,375.471,307.195,379.289,307.2,384z M281.6,332.8v25.6h-51.2v-25.6c0.033-10.813,6.868-20.435,17.067-24.028v6.961
				c0,4.713,3.821,8.533,8.533,8.533c4.713,0,8.533-3.821,8.533-8.533v-6.961C274.732,312.365,281.567,321.987,281.6,332.8z
				 M366.933,145.067h4.267l12.8,17.067h-17.067V145.067z M162.133,25.6c0.005-4.711,3.822-8.529,8.533-8.533h170.667
				c4.711,0.005,8.529,3.822,8.533,8.533v136.533h-21.63c11.508-31.87,0.77-67.516-26.426-87.727
				c-27.196-20.211-64.424-20.211-91.621,0s-37.934,55.857-26.426,87.727h-21.63V25.6z M300.051,162.133l-30.719-25.6l37.432-31.193
				c10.766,17.132,11.916,38.61,3.04,56.793H300.051z M202.196,162.133c-8.876-18.182-7.726-39.661,3.042-56.791l37.43,31.192
				l-30.719,25.6H202.196z M216.119,92.189c22.628-20.519,57.133-20.519,79.761,0.001L256,125.423L216.119,92.189z M256,147.645
				l17.386,14.489h-34.772L256,147.645z M128,162.133l12.8-17.067h4.267v17.067H128z M123.613,102.4h21.454V128h-8.533
				c-2.686,0-5.216,1.266-6.825,3.417l-25.6,34.133c-1.94,2.585-2.253,6.044-0.808,8.935c1.445,2.891,4.401,4.716,7.633,4.715
				h290.133c3.232,0.001,6.187-1.824,7.633-4.715s1.133-6.35-0.808-8.935l-25.6-34.133c-1.609-2.151-4.139-3.417-6.825-3.417h-8.533
				v-25.6h21.454l80.455,102.4H43.157L123.613,102.4z M469.333,256h-204.8v-8.533c0-4.713-3.821-8.533-8.533-8.533
				c-4.713,0-8.533,3.821-8.533,8.533V256H34.133v-34.133h443.738L477.879,256H469.333z"/>
			<path style="fill:#428DFF;" d="M256,392.533c-14.138,0-25.6,11.462-25.6,25.6c0,14.138,11.462,25.6,25.6,25.6
				c14.139,0,25.6-11.462,25.6-25.6C281.585,404.001,270.132,392.549,256,392.533z M256,426.667c-4.713,0-8.533-3.82-8.533-8.533
				s3.821-8.533,8.533-8.533c4.713,0,8.533,3.82,8.533,8.533C264.529,422.844,260.711,426.662,256,426.667z"/>
			<path style="fill:#428DFF;" d="M196.267,51.2h119.467c4.713,0,8.533-3.821,8.533-8.533s-3.821-8.533-8.533-8.533H196.267
				c-4.713,0-8.533,3.821-8.533,8.533S191.554,51.2,196.267,51.2z"/>
		</g>
	</g>
</g>
<g>
</g>
<g>
</g>
<g>
</g>
<g>
</g>
<g>
</g>
<g>
</g>
<g>
</g>
<g>
</g>
<g>
</g>
<g>
</g>
<g>
</g>
<g>
</g>
<g>
</g>
<g>
</g>
<g>
</g>
</svg>
